<svg xmlns="http://www.w3.org/2000/svg"   viewBox ="0 -20 636 400"><defs><style>.a{fill:#b2b2b2}.b{fill:#505050}.c{fill:#737373}.d{fill:#8562ad}.e{fill:#5c2d91}.f{fill:#333}.g{fill:#c7b8ff}.h{fill:#9e83e3}.i{fill:#8e562e}.j{fill:#613d30}.k{fill:#282828}.l{fill:#f3f3f3}.m{fill:#2a3282}.n{fill:#0078d7}.o{fill:#b4a0ff}.p{fill:#fff}</style></defs><title>swimlane-one-consistent-api</title><path class="a" d="M208.558 155.7l-1.1-1.094-10.238 10.815-6.383-1.933-2.278-6.258 11.339-9.713-1.1-1.1a14.52 14.52 0 0 0-18.428 19.473l-31.076 32.8c-2.046 2.162-2.229 6.168.288 8.087s5.62 1.924 7.666-.238l31.775-32.468c5.3.9 11.587-.32 15.678-4.644 4.128-3.273 5.474-8.163 3.857-13.727zM153.3 205.01a2.4 2.4 0 1 1 2.4-2.4 2.4 2.4 0 0 1-2.4 2.4z"/><path class="b" d="M208.558 155.7l-10.242 10.819-6.383-1.933-2.278-6.258 10.241-10.81a14.52 14.52 0 0 0-18.428 19.467l-31.076 32.8c-2.046 2.162-2.229 6.168.288 8.087s5.62 1.924 7.666-.238l31.774-32.464c5.3.9 11.587-.32 15.678-4.644 4.129-3.275 5.008-9.62 2.76-14.826zm-54.157 50.4a2.4 2.4 0 1 1 2.4-2.4 2.4 2.4 0 0 1-2.401 2.408z"/><path class="a" d="M176.719 180.128l-16.283-15.401-5.925-2.178-8.263-11.233 3.938-3.727 11.732 7.739 2.382 5.482 15.964 15.05-3.545 4.268z"/><path class="c" d="M177.515 178.681l-16.284-15.401-5.924-2.178-7.963-10.824-1.096 1.038 8.263 11.233 5.925 2.178 16.283 15.401 3.545-4.268-.228-.215-2.521 3.036z"/><path class="d" d="M206.006 207.938s-3.664 1.906-6.382-.747l-23.518-21.17c-2.642-2.565-2.063-4.952-.184-6.655l3.763-4.229c1.881-1.664 4.2-2.1 6.109-.484l23.963 22.655c2.284 2.156 2.047 4.984.184 6.66z"/><path class="e" d="M209.941 200.205s-3.1 3.239-3.935 3.971-3.244 2.284-5.962-.37l-23.938-21.548a6.9 6.9 0 0 1-1.256-1.6c-.9 1.53-.772 3.393 1.256 5.362l23.938 21.548c2.036 1.856 5.123 1.283 5.962.37 1.905-1.692 3.935-3.971 3.935-3.971a4.184 4.184 0 0 0 1-5.07 4.5 4.5 0 0 1-1 1.308z"/><path class="f" d="M165.93 73.044v38.592a.877.877 0 0 0 .877.877h28.067a.877.877 0 0 1 .877.877.877.877 0 0 0 .877.877h7.894a.877.877 0 0 0 .877-.877.877.877 0 0 1 .877-.877h28.067a.877.877 0 0 0 .877-.877V73.044a.877.877 0 0 0-.877-.877h-67.536a.877.877 0 0 0-.877.877z"/><path class="c" d="M169.438 105.496h62.273v4.385h-62.273z"/><path class="g" d="M200.136 109.978s-.667-4.482-6.34-4.482h-24.358V68.658H194.8c5.2 0 5.338 4.482 5.338 4.482z"/><path class="h" d="M175.578 73.921h18.419v1.754h-18.419zM175.578 78.306h18.419v1.754h-18.419zM175.578 82.692h18.419v1.754h-18.419zM175.578 87.077h18.419v1.754h-18.419zM175.578 91.462h18.419v1.754h-18.419zM175.578 95.848h18.419v1.754h-18.419zM175.578 100.233h18.419v1.754h-18.419z"/><path class="g" d="M200.136 109.978s.667-4.482 6.34-4.482h25.235V68.658h-26.236c-5.2 0-5.338 4.482-5.338 4.482z"/><path class="h" d="M225.571 75.675h-18.419v-1.754h18.419zM225.571 80.061h-18.419v-1.754h18.419zM225.571 84.445h-18.419v-1.754h18.419zM225.571 88.831h-18.419v-1.754h18.419zM225.571 93.217h-18.419v-1.754h18.419zM225.571 97.602h-18.419v-1.754h18.419zM225.571 101.988h-18.419v-1.754h18.419z"/><path class="e" d="M211.538 86.09l-3.07-.877-3.069.877V66.904h6.139V86.09z"/><path class="h" d="M199.698 73.044h.877v36.838h-.877z"/><rect class="e" x="332.853" y="28.516" width="71.302" height="49.687" rx="7.515" ry="7.515"/><path class="d" d="M332.853 41.724v30.89a5.588 5.588 0 0 0 5.588 5.588h60.125a5.588 5.588 0 0 0 5.588-5.588v-30.89z"/><path class="e" d="M348.993 41.724h2.28v36.082h-2.28z"/><path class="g" d="M390.079 34.314h7.087v3.544h-7.087zM378.481 34.314h7.087v3.544h-7.087z"/><path class="i" d="M291.565 174.415v14.339c0 4.345 4.088 9.56 14.048 9.56s13.762-4.888 13.762-10.1v-12.387z"/><path class="j" d="M288.524 167.245c7.93 11.08 13.253 19.88 30.851 20.314v-11.732z"/><path class="i" d="M313.554 128.535s6.313 12.224 7.052 13.02 9.281 9.29 9.281 9.29a1.486 1.486 0 0 1 .182 1.729c-.557.933-3.7 2.246-3.821 3.133s3 6.948 5.567 10.678c2.81 4.075 1.469 5.694-3.837 7.818-5.555 2.224-20.526 6.314-25.223 5.28s-24.566-17.51-24.566-17.51 4.978-27.4 9-30.66 26.365-2.778 26.365-2.778z"/><path class="k" d="M305.771 110.653s8.441 3.394 10.921 10.342-1.113 10.167-10.37 13.545-9.427 3.834-5.548 9.542a79.809 79.809 0 0 1 5.356 8.753l-3.848 2.449a23.212 23.212 0 0 0-4.669-3.877c-2.976-1.646-5.777-.92-6.8 1.809a7.115 7.115 0 0 0 4.333 8.706 8.687 8.687 0 0 1 5.7 7.728c.363 3.443-5.232 8.4-5.232 8.4s-12.055-2.444-20.472-15.975-4.949-15.863-.423-18.525c-3.31-4.457-.535-15.848 16.919-21.882 14.545-5.028 15.062-8.406 14.133-11.015z"/><path class="l" d="M327.835 159.615c-1.2.774-2.912 1.836-4.19 2.483-2.178 1.1-7.335 2.958-7.335 2.958s8.336 1.887 12.3-3.969a16.188 16.188 0 0 1-.775-1.472z"/><path class="i" d="M405.9 114.316c8.63-8.327 7.2-9.25 10.28-19.3 1.4-5.988.016-8.371-2.211-5.934 3.344-5.329.3-10.908-2.209-7.051.559-1.725.287-4.77-1.935-5.123-1.945-.1-2.506 3.3-2.787 4.72-1.386-1.267-4.166-1.012-5.286 3.555a13.787 13.787 0 0 1-2.789 5.837c-.547-4.413-2.489-6.188-4.713-4.868-.009 4.465-2.522 11.113-3.367 17.05a26.529 26.529 0 0 1-.006 3.348c-2.04 15.795-4 21.6-4 21.6 14.163 2.578 14.932-4.19 14.932-4.19z"/><path class="m" d="M321.48 190.674h26.651c9.27 0 22.016-15.067 28.389-30.343s10.718-42.985 10.718-42.985l19.753 5s-6.428 33.715-14.828 58.628-44.322 64.351-44.322 64.351V298h-93.858s-1.448-85.515-1.448-91.855 2.607-7.209 10.139-9.526 28.534-7.242 28.534-7.242l14.263 7.532z"/><path class="n" d="M291.565 183.293l14.155 11.008 13.655-11.008 5.871 7.381-4.043 14.485-14.691-7.559-12.778 8.844-8.465-15.77 6.296-7.381zM244.713 298s1.448-59.276 4.345-80.908 9.818-21.683 12.167-10.648c8.788 41.288 8.788 91.556 8.788 91.556zM387.238 117.347s-4.345 27.708-10.718 42.985-15.933 21.658-24.62 26.868c-3.41 2.046-8.536 3.47-10.708 3.47 13.039 24.754 6.652 54.652 6.652 54.652s35.921-39.438 44.322-64.351 14.828-58.628 14.828-58.628z"/><path class="o" d="M287.582 6.051a23.453 23.453 0 0 0-2.211-1.294l-.062-.032q-.34-.173-.687-.336l-.19-.088-.673-.3-.181-.074q-1.031-.427-2.117-.765c-.137-.043-.274-.086-.413-.126-.179-.052-.36-.1-.541-.151-.164-.044-.329-.086-.5-.127s-.334-.082-.5-.12c-.22-.05-.442-.094-.665-.138-.131-.026-.262-.054-.394-.078q-.487-.088-.981-.157c-.127-.018-.255-.032-.383-.049a28.29 28.29 0 0 0-.72-.082q-.2-.02-.4-.036-.377-.031-.758-.052c-.119-.006-.237-.014-.357-.019A24.806 24.806 0 0 0 273.724 2a25.79 25.79 0 0 0-9.247 1.678q-1.057.405-2.055.9-.5.247-.982.514-.966.535-1.866 1.151t-1.727 1.3a20.5 20.5 0 0 0-7.567 15.8 20.052 20.052 0 0 0 3.3 11.029q.263.4.545.793a21.445 21.445 0 0 0 1.851 2.23l.007.008.045.046q.192.2.391.4l.123.132.03.032c6.982 7.347 9.533 17.494 9.533 17.494h15.317s2.538-10.194 9.488-17.542a20.348 20.348 0 0 0 6.257-14.62 20.724 20.724 0 0 0-9.585-17.294z"/><path class="e" d="M277.158 73.716h-6.836l-3.962-4.775h14.76l-3.962 4.775z"/><path class="e" d="M265.492 55.291h16.497V69.93h-16.497z"/><circle class="d" cx="456.176" cy="143.825" r="33.577"/><path class="p" d="M445.541 150.751l-14.081-6.422v-2.443l14.081-6.739v3.589l-10.041 4.3v.091l10.041 4.04zM463.452 130.081l-10.539 25.208h-4.251l10.492-25.208zM481.062 144.133l-14.081 6.422v-3.573l10.071-4.026v-.06l-10.071-4.312V135l14.081 6.694z"/><path class="d" d="M265.492 59.963h13.079v2.28h-13.079zM265.492 64.523h13.079v2.28h-13.079z"/><circle class="k" cx="312.4" cy="146.336" r="1.984"/></svg>